<svg width="38" height="38" viewBox="0 0 38 38" fill="none" xmlns="http://www.w3.org/2000/svg">
<path d="M37.75 12.75H33.0625V4.9375H25.25V0.25H12.75V4.9375H4.9375V12.75H0.25V25.25H4.9375V33.0625H12.75V37.75H25.25V33.0625H33.0625V25.25H37.75V12.75Z" fill="#4338DD"/>
<path d="M19 11.1875H22.125V19H19V11.1875Z" fill="#E6E5E5"/>
<path d="M15.875 19H19V26.8125H15.875V19Z" fill="#E6E5E5"/>
<path d="M6.5 20.5625H9.625V23.6875H6.5V20.5625Z" fill="#E6E5E5"/>
<path d="M9.625 23.6875H12.75V26.8125H9.625V23.6875Z" fill="#E6E5E5"/>
<path d="M3.375 17.4375H6.5V20.5625H3.375V17.4375Z" fill="#E6E5E5"/>
<path d="M6.5 14.3125H9.625V17.4375H6.5V14.3125Z" fill="#E6E5E5"/>
<path d="M9.625 11.1875H12.75V14.3125H9.625V11.1875Z" fill="#E6E5E5"/>
<path d="M28.375 14.3125H31.5V17.4375H28.375V14.3125Z" fill="#E6E5E5"/>
<path d="M25.25 11.1875H28.375V14.3125H25.25V11.1875Z" fill="#E6E5E5"/>
<path d="M31.5 17.4375H34.625V20.5625H31.5V17.4375Z" fill="#E6E5E5"/>
<path d="M28.375 20.5625H31.5V23.6875H28.375V20.5625Z" fill="#E6E5E5"/>
<path d="M25.25 23.6875H28.375V26.8125H25.25V23.6875Z" fill="#E6E5E5"/>
</svg>
